<svg xmlns="http://www.w3.org/2000/svg" version="1.1" xmlns:xlink="http://www.w3.org/1999/xlink" xmlns:svgjs="http://svgjs.dev/svgjs" width="2000" height="1500" viewBox="0 0 2000 1500"><rect width="2000" height="1500" fill="#444444"></rect><g transform="matrix(0.75,0,0,0.75,249.090909090909,282.7536437246963)"><svg viewBox="0 0 396 247" data-background-color="#444444" preserveAspectRatio="xMidYMid meet" height="1247" width="2000" xmlns="http://www.w3.org/2000/svg" xmlns:xlink="http://www.w3.org/1999/xlink"><g id="tight-bounds" transform="matrix(1,0,0,1,0.2400000000000091,-0.09999999999999432)"><svg viewBox="0 0 395.52 247.2" height="247.2" width="395.52"><g><svg></svg></g><g><svg viewBox="0 0 395.52 247.2" height="247.2" width="395.52"><g transform="matrix(1,0,0,1,41.3889908256881,37.08)"><svg viewBox="0 0 312.7420183486238 173.04" height="173.04" width="312.7420183486238"><g><svg viewBox="0 0 312.7420183486238 173.04" height="173.04" width="312.7420183486238"><g><svg viewBox="0 0 312.7420183486238 173.04" height="173.04" width="312.7420183486238"><g><svg viewBox="0 0 312.7420183486238 173.04" height="173.04" width="312.7420183486238"><g id="textblocktransform"><svg viewBox="0 0 312.7420183486238 173.04" height="173.04" width="312.7420183486238" id="textblock"><g><svg viewBox="0 0 312.7420183486238 173.04" height="173.04" width="312.7420183486238"><g transform="matrix(1,0,0,1,0,0)"><svg width="312.7420183486238" viewBox="1.75 -32.099998474121094 59.099998474121094 32.69999694824219" height="173.04" data-palette-color="#ffffff"><path d="M36.25 0L26.05 0 26.05-0.9 28.4-0.9Q29.1-0.9 29.1-1.5L29.1-1.5 29.1-27.05 18.65 0 16.95 0 6.5-26.3 6.5-1.6Q6.5-0.9 7.2-0.9L7.2-0.9 9.55-0.9 9.55 0 1.75 0 1.75-0.9 4.1-0.9Q4.8-0.9 4.8-1.6L4.8-1.6 4.8-30Q4.8-30.6 4.1-30.6L4.1-30.6 1.75-30.6 1.75-31.5 8.9-31.5 19.1-5.65 29.1-31.5 36.25-31.5 36.25-30.6 33.9-30.6Q33.2-30.6 33.2-29.9L33.2-29.9 33.2-1.5Q33.2-0.9 33.9-0.9L33.9-0.9 36.25-0.9 36.25 0ZM50.4 0.6L50.4 0.6Q47.1 0.6 43.8-1.2L43.8-1.2Q42.7-1.75 42.3-1.75L42.3-1.75Q41.55-1.75 41.5-0.7L41.5-0.7 41.45 0 40.5 0 40.5-8.35 41.4-8.35Q41.85-4.5 44.27-2.68 46.7-0.85 50.02-0.85 53.35-0.85 55.07-2.65 56.8-4.45 56.8-6.9L56.8-6.9Q56.8-10.8 52.3-12.8L52.3-12.8 46.35-15.45Q43.65-16.65 42.3-18.73 40.95-20.8 40.95-23.2L40.95-23.2Q40.95-26.85 43.4-29.48 45.85-32.1 50.45-32.1L50.45-32.1Q53.15-32.1 56-30.3L56-30.3Q56.95-29.75 57.3-29.75L57.3-29.75Q57.95-29.75 58-30.8L58-30.8 58.05-31.8 59-31.8 59-23.15 58.1-23.15Q57.7-27 55.62-28.83 53.55-30.65 50.57-30.65 47.6-30.65 45.97-29.03 44.35-27.4 44.35-25.33 44.35-23.25 45.47-21.6 46.6-19.95 48.8-19L48.8-19 54.8-16.35Q57.8-15 59.32-12.83 60.85-10.65 60.85-8.15L60.85-8.15Q60.85-4.6 58-2 55.15 0.6 50.4 0.6Z" opacity="1" transform="matrix(1,0,0,1,0,0)" fill="#ffffff" class="wordmark-text-0" data-fill-palette-color="primary" id="text-0"></path></svg></g></svg></g></svg></g></svg></g></svg></g></svg></g></svg></g><g><path xmlns="http://www.w3.org/2000/svg" d="M0 247.2v-247.2h395.52v247.2zM379.915 231.595v-215.99h-364.31v215.99z" fill="#ffffff" fill-rule="nonzero" stroke="none" stroke-width="1" stroke-linecap="butt" stroke-linejoin="miter" stroke-miterlimit="10" stroke-dasharray="" stroke-dashoffset="0" font-family="none" font-weight="none" font-size="none" text-anchor="none" style="mix-blend-mode: normal" data-fill-palette-color="tertiary"></path></g></svg></g><defs></defs></svg><rect width="395.52" height="247.2" fill="none" stroke="none" visibility="hidden"></rect></g></svg></g></svg>